# xmcd
#
# Track frame offsets:
#	150
#	16200
#	35372
#	55322
#	70322
#	87347
#	105197
#	121472
#	137822
#	154022
#
# Disc length: 2256 seconds
#
# Revision: 1
# Processed by: cddbd v1.5.2PL0 Copyright (c) Steve Scherf et al.
# Submitted via: audiograbber 1.83.01
#
DISCID=7c08ce0a
DTITLE=Πασχάλης Τερζής - Πασχάλης Τερζής Γιώργος Θεοφάνους
DYEAR=1900
DGENRE=
TTITLE0=Παλιόκαιρος
TTITLE1=Ο δικός μου ο δρόμος
TTITLE2=Δώσε μου μιά ευκαιρία
TTITLE3=Αν κάποια μέρα δε είμαστε μαζί
TTITLE4=Τι σε νοιάζει
TTITLE5=Ενα μαχαίρι
TTITLE6=Τώρα
TTITLE7=Επιφυλάσσομαι γιά κάθε δικαίωμα
TTITLE8=Πονάω
TTITLE9=Εσύ μιλάς γιά υποχρέωση
EXTD=
EXTT0=
EXTT1=
EXTT2=
EXTT3=
EXTT4=
EXTT5=
EXTT6=
EXTT7=
EXTT8=
EXTT9=
PLAYORDER=
